<svg width="20" height="20" viewBox="0 0 20 20" fill="none" xmlns="http://www.w3.org/2000/svg">
<path d="M17.7778 0H2.22222C1 0 0 1 0 2.22222V17.7778C0 19 1 20 2.22222 20H17.7778C19 20 20 19 20 17.7778V2.22222C20 1 19 0 17.7778 0ZM8.56667 14.7667C8.46387 14.8697 8.34178 14.9514 8.20736 15.0071C8.07295 15.0629 7.92885 15.0916 7.78333 15.0916C7.63781 15.0916 7.49372 15.0629 7.35931 15.0071C7.22489 14.9514 7.10279 14.8697 7 14.7667L3.01111 10.7778C2.90824 10.6749 2.82664 10.5528 2.77097 10.4184C2.7153 10.284 2.68664 10.1399 2.68664 9.99444C2.68664 9.84897 2.7153 9.70491 2.77097 9.57051C2.82664 9.4361 2.90824 9.31398 3.01111 9.21111C3.11398 9.10824 3.2361 9.02664 3.37051 8.97097C3.50491 8.9153 3.64897 8.88664 3.79444 8.88664C3.93992 8.88664 4.08398 8.9153 4.21838 8.97097C4.35279 9.02664 4.47491 9.10824 4.57778 9.21111L7.77778 12.4111L15.4222 4.76667C15.63 4.55891 15.9117 4.4422 16.2056 4.4422C16.4994 4.4422 16.7811 4.55891 16.9889 4.76667C17.1966 4.97442 17.3134 5.25619 17.3134 5.55C17.3134 5.84381 17.1966 6.12558 16.9889 6.33333L8.56667 14.7667Z" fill="#00DBCF"/>
</svg>
