<svg width="23" height="40" viewBox="0 0 23 40" fill="none" xmlns="http://www.w3.org/2000/svg">
<path d="M21.6292 0.860152C22.1799 1.41102 22.4893 2.15809 22.4893 2.93706C22.4893 3.71602 22.1799 4.46309 21.6292 5.01396L7.08857 19.5546L21.6292 34.0952C22.1475 34.6519 22.4296 35.388 22.4162 36.1485C22.4028 36.9089 22.095 37.6346 21.5574 38.1727C21.0199 38.7109 20.2946 39.0195 19.5341 39.0337C18.7736 39.048 18.0373 38.7667 17.48 38.249L0.860152 21.6338C0.309399 21.0829 0 20.3358 0 19.5569C0 18.7779 0.309399 18.0308 0.860152 17.48L17.4754 0.860152C18.0263 0.309399 18.7733 0 19.5523 0C20.3313 0 21.0783 0.309399 21.6292 0.860152Z" fill="white"/>
</svg>
